<svg width="24" height="24" viewBox="0 0 24 24" fill="none" xmlns="http://www.w3.org/2000/svg">
<mask id="mask0_211_428" style="mask-type:alpha" maskUnits="userSpaceOnUse" x="0" y="0" width="24" height="24">
<rect width="24" height="24" fill="#D9D9D9"/>
</mask>
<g mask="url(#mask0_211_428)">
<path d="M19.6 19.3435L13.3 13.11C12.8 13.5058 12.225 13.8191 11.575 14.05C10.925 14.2808 10.2333 14.3963 9.5 14.3963C7.68333 14.3963 6.14583 13.7738 4.8875 12.5287C3.62917 11.2836 3 9.76236 3 7.96487C3 6.16737 3.62917 4.64609 4.8875 3.40103C6.14583 2.15598 7.68333 1.53345 9.5 1.53345C11.3167 1.53345 12.8542 2.15598 14.1125 3.40103C15.3708 4.64609 16 6.16737 16 7.96487C16 8.69046 15.8833 9.37483 15.65 10.018C15.4167 10.6611 15.1 11.23 14.7 11.7248L21 17.9583L19.6 19.3435ZM9.5 12.4174C10.75 12.4174 11.8125 11.9845 12.6875 11.1187C13.5625 10.253 14 9.20168 14 7.96487C14 6.72805 13.5625 5.67676 12.6875 4.811C11.8125 3.94523 10.75 3.51235 9.5 3.51235C8.25 3.51235 7.1875 3.94523 6.3125 4.811C5.4375 5.67676 5 6.72805 5 7.96487C5 9.20168 5.4375 10.253 6.3125 11.1187C7.1875 11.9845 8.25 12.4174 9.5 12.4174Z" fill="#081225"/>
</g>
</svg>
